<svg width="213" height="100" viewBox="0 0 213 100" fill="none" xmlns="http://www.w3.org/2000/svg">
<rect x="1.88364" y="1.88364" width="208.905" height="96.2327" rx="5.65091" fill="#113B7A"/>
<rect x="1.88364" y="1.88364" width="208.905" height="96.2327" rx="5.65091" stroke="#3D7CDA" stroke-width="3.76727"/>
<path d="M25.8535 24.9643H19.4994V19.439H38.2855V24.9643H31.9314V58.1163H25.8535V24.9643ZM43.3887 19.439H51.6214L57.9203 58.1163H51.8425L50.7374 50.4361V50.5466H43.8307L42.7257 58.1163H37.0898L43.3887 19.439ZM50.0191 45.2976L47.3117 26.1799H47.2012L44.549 45.2976H50.0191ZM63.0848 24.9643H56.7306V19.439H75.5168V24.9643H69.1626V58.1163H63.0848V24.9643ZM87.3 58.6689C84.3531 58.6689 82.1062 57.8401 80.5591 56.1825C79.012 54.488 78.2384 52.0753 78.2384 48.9443V19.439H84.3163V49.3863C84.3163 50.7124 84.5741 51.6701 85.0898 52.2595C85.6424 52.8488 86.4159 53.1435 87.4105 53.1435C88.405 53.1435 89.1602 52.8488 89.6759 52.2595C90.2284 51.6701 90.5047 50.7124 90.5047 49.3863V19.439H96.3615V48.9443C96.3615 52.0753 95.588 54.488 94.0409 56.1825C92.4938 57.8401 90.2468 58.6689 87.3 58.6689ZM109.539 19.439H118.711C121.843 19.439 124.126 20.1757 125.563 21.6491C126.999 23.0857 127.718 25.3143 127.718 28.3348V29.8819C127.718 31.871 127.386 33.4918 126.723 34.7442C126.097 35.9966 125.121 36.8991 123.795 37.4516V37.5621C126.815 38.5935 128.326 41.2825 128.326 45.6291V48.9443C128.326 51.928 127.534 54.2118 125.95 55.7957C124.403 57.3428 122.119 58.1163 119.098 58.1163H109.539V19.439ZM117.993 35.1862C119.209 35.1862 120.111 34.8731 120.701 34.2469C121.327 33.6207 121.64 32.5709 121.64 31.0975V28.9426C121.64 27.5428 121.382 26.5298 120.866 25.9036C120.388 25.2774 119.614 24.9643 118.546 24.9643H115.617V35.1862H117.993ZM119.098 52.591C120.166 52.591 120.958 52.3147 121.474 51.7622C121.99 51.1728 122.248 50.1783 122.248 48.7785V45.4081C122.248 43.64 121.935 42.4244 121.308 41.7613C120.719 41.0615 119.724 40.7115 118.325 40.7115H115.617V52.591H119.098ZM140.663 58.6689C137.68 58.6689 135.396 57.8216 133.812 56.1272C132.228 54.4328 131.436 52.0385 131.436 48.9443V28.6111C131.436 25.5169 132.228 23.1226 133.812 21.4281C135.396 19.7337 137.68 18.8865 140.663 18.8865C143.647 18.8865 145.931 19.7337 147.515 21.4281C149.099 23.1226 149.891 25.5169 149.891 28.6111V48.9443C149.891 52.0385 149.099 54.4328 147.515 56.1272C145.931 57.8216 143.647 58.6689 140.663 58.6689ZM140.663 53.1435C142.763 53.1435 143.813 51.8727 143.813 49.3311V28.2243C143.813 25.6826 142.763 24.4118 140.663 24.4118C138.564 24.4118 137.514 25.6826 137.514 28.2243V49.3311C137.514 51.8727 138.564 53.1435 140.663 53.1435ZM154.001 19.439H160.079V52.591H170.08V58.1163H154.001V19.439ZM177.907 19.439H186.14L192.438 58.1163H186.361L185.255 50.4361V50.5466H178.349L177.244 58.1163H171.608L177.907 19.439ZM184.537 45.2976L181.83 26.1799H181.719L179.067 45.2976H184.537Z" fill="white"/>
<path d="M31.6201 73.685C32.3035 73.6539 32.8745 74.1996 32.8745 74.8837V74.8837C32.8745 75.5678 32.3035 76.1135 31.6201 76.0824L19.6884 75.5401C19.3375 75.5241 19.0612 75.235 19.0612 74.8837V74.8837V74.8837C19.0612 74.5324 19.3375 74.2432 19.6884 74.2273L31.6201 73.685Z" fill="white"/>
<path d="M49.8667 68.5819C50.5699 68.5819 51.1978 68.7024 51.7504 68.9435C52.3129 69.1846 52.76 69.5111 53.0915 69.923C53.423 70.3349 53.5888 70.797 53.5888 71.3094C53.5888 71.7413 53.4582 72.1382 53.197 72.4998C52.9358 72.8615 52.5591 73.1679 52.0668 73.419C52.8504 73.64 53.4632 74.0318 53.9052 74.5944C54.3473 75.147 54.5683 75.7999 54.5683 76.5534C54.5683 77.2064 54.3975 77.784 54.0559 78.2863C53.7144 78.7886 53.2422 79.1804 52.6394 79.4617C52.0367 79.743 51.3385 79.8837 50.5448 79.8837H45.0145C44.8638 79.8837 44.7884 79.8083 44.7884 79.6576V79.2056C44.7884 79.0549 44.8638 78.9795 45.0145 78.9795C45.7579 78.9795 46.1296 78.5023 46.1296 77.548V70.9176C46.1296 69.9632 45.7579 69.486 45.0145 69.486C44.8638 69.486 44.7884 69.4107 44.7884 69.26V68.8079C44.7884 68.6572 44.8638 68.5819 45.0145 68.5819H49.8667ZM49.3845 73.1327C50.0074 73.1327 50.4846 72.972 50.8161 72.6505C51.1576 72.329 51.3284 71.882 51.3284 71.3094C51.3284 70.7367 51.1627 70.2897 50.8311 69.9682C50.4996 69.6467 50.0375 69.486 49.4448 69.486H48.5256V73.1327H49.3845ZM49.8969 78.9795C50.6604 78.9795 51.2531 78.7686 51.675 78.3466C52.0969 77.9146 52.3079 77.3169 52.3079 76.5534C52.3079 74.9862 51.3385 74.2026 49.3996 74.2026H48.5256V77.548C48.5256 78.0101 48.611 78.3667 48.7817 78.6179C48.9525 78.859 49.1987 78.9795 49.5201 78.9795H49.8969ZM64.9767 77.548C65.1374 77.9598 65.2931 78.3014 65.4438 78.5727C65.5945 78.8439 65.8105 78.9795 66.0918 78.9795C66.1922 78.9795 66.2525 78.9996 66.2726 79.0398C66.3027 79.0699 66.3178 79.1252 66.3178 79.2056V79.6576C66.3178 79.8083 66.2425 79.8837 66.0918 79.8837H61.4656C61.3149 79.8837 61.2395 79.8083 61.2395 79.6576V79.2056C61.2395 79.1252 61.2496 79.0699 61.2697 79.0398C61.2998 78.9996 61.3651 78.9795 61.4656 78.9795C61.7368 78.9795 61.998 78.8791 62.2492 78.6781C62.5104 78.4772 62.6409 78.2311 62.6409 77.9398C62.6409 77.8694 62.6309 77.8041 62.6108 77.7439C62.6008 77.6836 62.5857 77.6183 62.5656 77.548L62.0985 76.2671H57.9695L57.5175 77.548C57.4974 77.6183 57.4823 77.6886 57.4723 77.7589C57.4622 77.8192 57.4572 77.8745 57.4572 77.9247C57.4572 78.2462 57.5878 78.5023 57.849 78.6932C58.1102 78.8841 58.3714 78.9795 58.6326 78.9795C58.7431 78.9795 58.8084 78.9996 58.8285 79.0398C58.8486 79.0699 58.8586 79.1252 58.8586 79.2056V79.6576C58.8586 79.8083 58.7833 79.8837 58.6326 79.8837H54.8804C54.7297 79.8837 54.6543 79.8083 54.6543 79.6576V79.2056C54.6543 79.1252 54.6644 79.0699 54.6845 79.0398C54.7146 78.9996 54.7799 78.9795 54.8804 78.9795C55.1818 78.9795 55.4078 78.8389 55.5585 78.5576C55.7192 78.2763 55.8699 77.9398 56.0106 77.548L59.2504 68.7777C59.2906 68.6472 59.376 68.5819 59.5066 68.5819H61.3299C61.4605 68.5819 61.5459 68.6421 61.5861 68.7627L64.9767 77.548ZM58.4367 74.9561H61.6163L59.9888 70.5559L58.4367 74.9561ZM78.0888 78.9795C78.2395 78.9795 78.3148 79.0549 78.3148 79.2056V79.6576C78.3148 79.8083 78.2395 79.8837 78.0888 79.8837H73.4626C73.3119 79.8837 73.2365 79.8083 73.2365 79.6576V79.2056C73.2365 79.0549 73.3119 78.9795 73.4626 78.9795H73.553C73.8041 78.9795 73.99 78.9092 74.1105 78.7686C74.2311 78.6179 74.2914 78.4421 74.2914 78.2411C74.2914 78.0101 74.2261 77.779 74.0955 77.548L72.7242 74.9862C72.4228 75.0164 72.0963 75.0314 71.7447 75.0314H70.6145V77.548C70.6145 77.9498 70.6898 78.2914 70.8405 78.5727C70.9912 78.8439 71.2524 78.9795 71.6241 78.9795H71.7145C71.8652 78.9795 71.9406 79.0549 71.9406 79.2056V79.6576C71.9406 79.8083 71.8652 79.8837 71.7145 79.8837H67.0883C66.9376 79.8837 66.8623 79.8083 66.8623 79.6576V79.2056C66.8623 79.0549 66.9376 78.9795 67.0883 78.9795H67.1938C67.5756 78.9795 67.8368 78.8439 67.9774 78.5727C68.1281 78.2914 68.2034 77.9498 68.2034 77.548V70.9176C68.2034 70.5057 68.1231 70.1641 67.9623 69.8929C67.8116 69.6216 67.5253 69.486 67.1034 69.486C66.9527 69.486 66.8774 69.4107 66.8774 69.26V68.8079C66.8774 68.6572 66.9527 68.5819 67.1034 68.5819H72.6338C73.4475 68.5819 74.1557 68.7275 74.7585 69.0189C75.3613 69.3102 75.8284 69.697 76.1599 70.1792C76.4914 70.6614 76.6572 71.1888 76.6572 71.7614C76.6572 72.2738 76.5216 72.7711 76.2503 73.2533C75.9791 73.7355 75.517 74.1323 74.864 74.4437L76.5065 77.548C76.7074 77.9197 76.9134 78.2512 77.1243 78.5425C77.3454 78.8339 77.6417 78.9795 78.0134 78.9795H78.0888ZM71.4885 73.9615C72.4931 73.9615 73.2265 73.7656 73.6886 73.3738C74.1608 72.982 74.3968 72.4446 74.3968 71.7614C74.3968 71.0683 74.1808 70.5157 73.7489 70.1038C73.3169 69.6919 72.7242 69.486 71.9707 69.486H70.6145V73.9615H71.4885ZM93.9241 72.3491C94.0748 72.3491 94.1502 72.4245 94.1502 72.5752V73.0272C94.1502 73.1779 94.0748 73.2533 93.9241 73.2533H93.8187C93.4269 73.2533 93.0752 73.3989 92.7638 73.6903C92.4624 73.9816 92.2314 74.3131 92.0706 74.6848C91.8798 75.157 91.6738 75.6141 91.4528 76.0561C91.2418 76.4981 91.0158 76.91 90.7747 77.2918L91.4377 78.0452C91.6989 78.3366 91.9551 78.5576 92.2063 78.7083C92.4675 78.859 92.8191 78.9343 93.2611 78.9343C93.3214 78.9343 93.3967 78.9293 93.4871 78.9192C93.5876 78.9092 93.6579 78.9042 93.6981 78.9042C93.8086 78.9042 93.8739 78.9745 93.894 79.1151L93.9392 79.5974C93.9493 79.7179 93.884 79.7882 93.7433 79.8083C93.6027 79.8284 93.452 79.8485 93.2912 79.8686C93.1405 79.8786 92.9848 79.8837 92.8241 79.8837C92.1711 79.8837 91.5734 79.8184 91.0309 79.6878C90.4884 79.5572 89.9961 79.2759 89.5541 78.8439C89.1322 79.2457 88.665 79.5521 88.1527 79.7631C87.6403 79.9741 87.0627 80.0796 86.4197 80.0796C85.9576 80.0796 85.4955 80.0293 85.0334 79.9289C84.5713 79.8284 84.1493 79.6627 83.7676 79.4316C83.3858 79.2005 83.0794 78.8941 82.8484 78.5124C82.6173 78.1206 82.5018 77.6434 82.5018 77.0808C82.5018 76.5082 82.6324 76.031 82.8936 75.6493C83.1548 75.2575 83.5064 74.936 83.9484 74.6848C84.3904 74.4337 84.8827 74.2428 85.4252 74.1122L84.5813 73.1327C84.3302 72.8414 84.1393 72.53 84.0087 72.1984C83.8781 71.8569 83.8128 71.5153 83.8128 71.1737C83.8128 70.6915 83.9384 70.2395 84.1895 69.8175C84.4407 69.3956 84.8174 69.054 85.3197 68.7928C85.832 68.5316 86.47 68.401 87.2335 68.401C88.1376 68.401 88.8408 68.5567 89.3431 68.8682C89.8555 69.1796 90.1117 69.5563 90.1117 69.9983C90.1117 70.1089 90.0966 70.2244 90.0665 70.3449C90.0464 70.4655 90.0112 70.5911 89.961 70.7217C89.9007 70.8623 89.7701 70.9577 89.5692 71.008L88.002 71.3847C87.8814 71.4148 87.8212 71.3747 87.8212 71.2641C87.8212 71.2139 87.8463 71.1536 87.8965 71.0833C88.0271 70.9125 88.1125 70.7618 88.1527 70.6312C88.1929 70.5006 88.213 70.355 88.213 70.1942C88.213 69.9531 88.1426 69.7371 88.002 69.5463C87.8714 69.3554 87.6152 69.26 87.2335 69.26C86.6809 69.26 86.2741 69.3855 86.0129 69.6367C85.7517 69.8778 85.6211 70.1792 85.6211 70.5408C85.6211 70.792 85.6813 71.0582 85.8019 71.3395C85.9225 71.6208 86.0983 71.892 86.3293 72.1532L90.0212 76.4178C90.3025 75.9456 90.5135 75.4986 90.6541 75.0766C90.7948 74.6446 90.8651 74.3282 90.8651 74.1273C90.8651 73.8661 90.7797 73.6551 90.6089 73.4944C90.4482 73.3336 90.2372 73.2533 89.976 73.2533H89.7349C89.5842 73.2533 89.5089 73.1779 89.5089 73.0272V72.5752C89.5089 72.4245 89.5842 72.3491 89.7349 72.3491H93.9241ZM86.1786 74.9711C85.7969 75.1319 85.4503 75.378 85.1389 75.7095C84.8375 76.041 84.6868 76.463 84.6868 76.9753C84.6868 77.4073 84.7822 77.7589 84.9731 78.0302C85.164 78.3014 85.4101 78.4973 85.7115 78.6179C86.0129 78.7384 86.3293 78.7987 86.6608 78.7987C87.0727 78.7987 87.4545 78.7233 87.8061 78.5727C88.1577 78.4119 88.4792 78.206 88.7705 77.9548L86.1786 74.9711ZM101.33 73.6903C101.33 74.2428 101.391 74.8104 101.511 75.3931C101.632 75.9657 101.822 76.4981 102.084 76.9904C102.345 77.4827 102.681 77.8795 103.093 78.1809C103.505 78.4722 104.002 78.6179 104.585 78.6179C104.806 78.6179 105.047 78.5927 105.308 78.5425C105.58 78.4822 105.811 78.3868 106.002 78.2562C106.203 78.1156 106.303 77.9297 106.303 77.6986V76.9151C106.303 76.3424 106.223 75.9356 106.062 75.6945C105.901 75.4534 105.695 75.3077 105.444 75.2575C105.203 75.2072 104.952 75.1821 104.691 75.1821H104.585C104.434 75.1821 104.359 75.1068 104.359 74.9561V74.504C104.359 74.3533 104.434 74.278 104.585 74.278H109.332C109.483 74.278 109.558 74.3533 109.558 74.504V74.9561C109.558 75.1068 109.483 75.1821 109.332 75.1821H109.211C108.95 75.1821 108.82 75.3479 108.82 75.6794V77.3069C108.478 78.1105 107.91 78.7736 107.117 79.296C106.323 79.8184 105.354 80.0796 104.208 80.0796C103.365 80.0796 102.606 79.9339 101.933 79.6426C101.26 79.3512 100.687 78.9444 100.215 78.422C99.743 77.8996 99.3813 77.2918 99.1302 76.5986C98.879 75.9054 98.7534 75.157 98.7534 74.3533C98.7534 73.851 98.8087 73.3236 98.9192 72.7711C99.0297 72.2185 99.2105 71.6861 99.4617 71.1737C99.7229 70.6513 100.064 70.1842 100.486 69.7723C100.918 69.3504 101.446 69.0189 102.069 68.7777C102.702 68.5266 103.45 68.401 104.314 68.401C105.037 68.401 105.66 68.4914 106.182 68.6723C106.715 68.8531 107.157 69.0842 107.509 69.3654C107.86 69.6467 108.136 69.9381 108.337 70.2395C108.548 70.5408 108.699 70.8221 108.789 71.0833C108.88 71.3345 108.925 71.5253 108.925 71.6559C108.925 71.7464 108.9 71.8117 108.85 71.8518C108.81 71.892 108.749 71.9272 108.669 71.9573L106.83 72.6053C106.79 72.6153 106.745 72.6304 106.695 72.6505C106.655 72.6606 106.609 72.6656 106.559 72.6656C106.519 72.6656 106.479 72.6606 106.439 72.6505C106.398 72.6304 106.378 72.5852 106.378 72.5149C106.378 72.4647 106.383 72.4044 106.393 72.3341C106.404 72.2537 106.409 72.1482 106.409 72.0176C106.409 71.3244 106.223 70.7468 105.851 70.2847C105.489 69.8225 104.937 69.5915 104.193 69.5915C103.621 69.5915 103.118 69.7673 102.686 70.1189C102.254 70.4605 101.918 70.9377 101.677 71.5505C101.446 72.1633 101.33 72.8765 101.33 73.6903ZM121.015 78.9795C121.166 78.9795 121.241 79.0549 121.241 79.2056V79.6576C121.241 79.8083 121.166 79.8837 121.015 79.8837H116.389C116.238 79.8837 116.163 79.8083 116.163 79.6576V79.2056C116.163 79.0549 116.238 78.9795 116.389 78.9795H116.479C116.73 78.9795 116.916 78.9092 117.037 78.7686C117.157 78.6179 117.218 78.4421 117.218 78.2411C117.218 78.0101 117.152 77.779 117.022 77.548L115.65 74.9862C115.349 75.0164 115.023 75.0314 114.671 75.0314H113.541V77.548C113.541 77.9498 113.616 78.2914 113.767 78.5727C113.918 78.8439 114.179 78.9795 114.55 78.9795H114.641C114.792 78.9795 114.867 79.0549 114.867 79.2056V79.6576C114.867 79.8083 114.792 79.8837 114.641 79.8837H110.015C109.864 79.8837 109.789 79.8083 109.789 79.6576V79.2056C109.789 79.0549 109.864 78.9795 110.015 78.9795H110.12C110.502 78.9795 110.763 78.8439 110.904 78.5727C111.054 78.2914 111.13 77.9498 111.13 77.548V70.9176C111.13 70.5057 111.049 70.1641 110.889 69.8929C110.738 69.6216 110.452 69.486 110.03 69.486C109.879 69.486 109.804 69.4107 109.804 69.26V68.8079C109.804 68.6572 109.879 68.5819 110.03 68.5819H115.56C116.374 68.5819 117.082 68.7275 117.685 69.0189C118.288 69.3102 118.755 69.697 119.086 70.1792C119.418 70.6614 119.583 71.1888 119.583 71.7614C119.583 72.2738 119.448 72.7711 119.177 73.2533C118.905 73.7355 118.443 74.1323 117.79 74.4437L119.433 77.548C119.634 77.9197 119.84 78.2512 120.051 78.5425C120.272 78.8339 120.568 78.9795 120.94 78.9795H121.015ZM114.415 73.9615C115.419 73.9615 116.153 73.7656 116.615 73.3738C117.087 72.982 117.323 72.4446 117.323 71.7614C117.323 71.0683 117.107 70.5157 116.675 70.1038C116.243 69.6919 115.65 69.486 114.897 69.486H113.541V73.9615H114.415ZM132.152 76.6589C132.243 76.7091 132.288 76.7644 132.288 76.8246C132.288 76.8648 132.273 76.9151 132.243 76.9753L130.826 79.959C130.786 80.0494 130.726 80.0946 130.646 80.0946C130.595 80.0946 130.55 80.0745 130.51 80.0344L130.435 79.959C130.384 79.9088 130.284 79.8837 130.133 79.8837H121.89C121.74 79.8837 121.664 79.8083 121.664 79.6576V79.2056C121.664 79.0549 121.74 78.9795 121.89 78.9795H121.921C122.644 78.9795 123.005 78.5023 123.005 77.548V70.9326C123.005 69.9783 122.639 69.5011 121.905 69.5011H121.89C121.74 69.5011 121.664 69.4257 121.664 69.275V68.823C121.664 68.6622 121.74 68.5819 121.89 68.5819H129.44C129.571 68.5819 129.666 68.5567 129.726 68.5065L129.817 68.4312C129.847 68.401 129.887 68.386 129.937 68.386C130.018 68.386 130.083 68.4261 130.133 68.5065L131.324 70.5559C131.354 70.5961 131.369 70.6413 131.369 70.6915C131.369 70.7618 131.329 70.8221 131.248 70.8724L130.646 71.2039C130.575 71.2441 130.52 71.2641 130.48 71.2641C130.409 71.2641 130.349 71.2189 130.299 71.1285L130.254 71.0532C129.942 70.5308 129.606 70.1691 129.244 69.9682C128.892 69.7572 128.425 69.6518 127.843 69.6518H125.401V73.193H126.728C127.18 73.193 127.531 73.1076 127.782 72.9368C128.034 72.766 128.159 72.5149 128.159 72.1834V72.0779C128.159 71.9272 128.234 71.8518 128.385 71.8518H128.837C128.988 71.8518 129.063 71.9272 129.063 72.0779V75.4986C129.063 75.6493 128.988 75.7246 128.837 75.7246H128.385C128.234 75.7246 128.159 75.6493 128.159 75.4986V75.4081C128.159 75.0666 128.034 74.8154 127.782 74.6547C127.541 74.4839 127.19 74.3985 126.728 74.3985H125.401V77.3822C125.401 78.3366 125.748 78.8138 126.441 78.8138H127.421C128.164 78.8138 128.767 78.7434 129.229 78.6028C129.701 78.4621 130.093 78.2261 130.404 77.8945C130.726 77.563 131.027 77.116 131.309 76.5534L131.354 76.463C131.404 76.3826 131.469 76.3424 131.55 76.3424C131.6 76.3424 131.64 76.3525 131.67 76.3726L132.152 76.6589ZM142.378 76.6589C142.469 76.6991 142.514 76.7593 142.514 76.8397C142.514 76.8498 142.509 76.8648 142.499 76.8849C142.499 76.895 142.489 76.9251 142.469 76.9753L141.052 79.959C141.012 80.0494 140.952 80.0946 140.872 80.0946C140.851 80.0946 140.826 80.0846 140.796 80.0645C140.766 80.0544 140.721 80.0193 140.661 79.959C140.61 79.9088 140.51 79.8837 140.359 79.8837H132.81C132.659 79.8837 132.584 79.8083 132.584 79.6576V79.2056C132.584 79.0549 132.659 78.9795 132.81 78.9795C133.553 78.9795 133.925 78.5023 133.925 77.548V70.9326C133.925 69.9783 133.553 69.5011 132.81 69.5011C132.659 69.5011 132.584 69.4257 132.584 69.275V68.823C132.584 68.6622 132.659 68.5819 132.81 68.5819H137.375C137.566 68.5819 137.662 68.6622 137.662 68.823V69.275C137.662 69.4257 137.571 69.5011 137.391 69.5011H136.321V77.3822C136.321 78.3366 136.667 78.8138 137.36 78.8138H137.948C138.681 78.8138 139.355 78.658 139.967 78.3466C140.58 78.0251 141.103 77.4274 141.535 76.5534L141.58 76.463C141.63 76.3726 141.69 76.3274 141.761 76.3274C141.811 76.3274 141.856 76.3424 141.896 76.3726L142.378 76.6589ZM153.966 77.548C153.966 77.9498 154.036 78.2914 154.177 78.5727C154.327 78.8439 154.594 78.9795 154.975 78.9795H155.066C155.216 78.9795 155.292 79.0549 155.292 79.2056V79.6576C155.292 79.8083 155.216 79.8837 155.066 79.8837H150.44C150.289 79.8837 150.214 79.8083 150.214 79.6576V79.2056C150.214 79.0549 150.289 78.9795 150.44 78.9795H150.53C150.912 78.9795 151.178 78.8439 151.329 78.5727C151.479 78.2914 151.555 77.9498 151.555 77.548V74.6848H146.401V77.548C146.401 77.9498 146.476 78.2914 146.627 78.5727C146.778 78.8439 147.044 78.9795 147.426 78.9795H147.516C147.667 78.9795 147.742 79.0549 147.742 79.2056V79.6576C147.742 79.8083 147.667 79.8837 147.516 79.8837H142.89C142.739 79.8837 142.664 79.8083 142.664 79.6576V79.2056C142.664 79.0549 142.739 78.9795 142.89 78.9795H142.98C143.362 78.9795 143.623 78.8439 143.764 78.5727C143.915 78.2914 143.99 77.9498 143.99 77.548V70.9176C143.99 70.5157 143.915 70.1792 143.764 69.9079C143.623 69.6266 143.362 69.486 142.98 69.486H142.89C142.739 69.486 142.664 69.4107 142.664 69.26V68.8079C142.664 68.6572 142.739 68.5819 142.89 68.5819H147.516C147.667 68.5819 147.742 68.6572 147.742 68.8079V69.26C147.742 69.4107 147.667 69.486 147.516 69.486H147.426C147.044 69.486 146.778 69.6266 146.627 69.9079C146.476 70.1792 146.401 70.5157 146.401 70.9176V73.4944H151.555V70.9176C151.555 70.5157 151.479 70.1792 151.329 69.9079C151.178 69.6266 150.912 69.486 150.53 69.486H150.44C150.289 69.486 150.214 69.4107 150.214 69.26V68.8079C150.214 68.6572 150.289 68.5819 150.44 68.5819H155.066C155.216 68.5819 155.292 68.6572 155.292 68.8079V69.26C155.292 69.4107 155.216 69.486 155.066 69.486H154.975C154.594 69.486 154.327 69.6266 154.177 69.9079C154.036 70.1792 153.966 70.5157 153.966 70.9176V77.548ZM166.163 77.548C166.324 77.9598 166.48 78.3014 166.63 78.5727C166.781 78.8439 166.997 78.9795 167.278 78.9795C167.379 78.9795 167.439 78.9996 167.459 79.0398C167.489 79.0699 167.504 79.1252 167.504 79.2056V79.6576C167.504 79.8083 167.429 79.8837 167.278 79.8837H162.652C162.501 79.8837 162.426 79.8083 162.426 79.6576V79.2056C162.426 79.1252 162.436 79.0699 162.456 79.0398C162.486 78.9996 162.552 78.9795 162.652 78.9795C162.923 78.9795 163.185 78.8791 163.436 78.6781C163.697 78.4772 163.828 78.2311 163.828 77.9398C163.828 77.8694 163.817 77.8041 163.797 77.7439C163.787 77.6836 163.772 77.6183 163.752 77.548L163.285 76.2671H159.156L158.704 77.548C158.684 77.6183 158.669 77.6886 158.659 77.7589C158.649 77.8192 158.644 77.8745 158.644 77.9247C158.644 78.2462 158.774 78.5023 159.036 78.6932C159.297 78.8841 159.558 78.9795 159.819 78.9795C159.93 78.9795 159.995 78.9996 160.015 79.0398C160.035 79.0699 160.045 79.1252 160.045 79.2056V79.6576C160.045 79.8083 159.97 79.8837 159.819 79.8837H156.067C155.916 79.8837 155.841 79.8083 155.841 79.6576V79.2056C155.841 79.1252 155.851 79.0699 155.871 79.0398C155.901 78.9996 155.966 78.9795 156.067 78.9795C156.368 78.9795 156.594 78.8389 156.745 78.5576C156.906 78.2763 157.056 77.9398 157.197 77.548L160.437 68.7777C160.477 68.6472 160.563 68.5819 160.693 68.5819H162.517C162.647 68.5819 162.732 68.6421 162.773 68.7627L166.163 77.548ZM159.623 74.9561H162.803L161.175 70.5559L159.623 74.9561Z" fill="white"/>
<path d="M179.798 74.8837C179.798 74.1996 180.369 73.6539 181.053 73.685L192.984 74.2273C193.335 74.2432 193.611 74.5324 193.611 74.8837V74.8837V74.8837C193.611 75.235 193.335 75.5241 192.984 75.5401L181.053 76.0824C180.369 76.1135 179.798 75.5678 179.798 74.8837V74.8837Z" fill="white"/>
</svg>
